<svg xmlns="http://www.w3.org/2000/svg" xmlns:xlink="http://www.w3.org/1999/xlink" version="1.1" x="0px" y="0px" viewBox="0 0 256 256" enable-background="new 0 0 256 256" xml:space="preserve" width="256" height="256">
<metadata> Svg Vector Icons : http://www.onlinewebfonts.com/icon </metadata>
<g><g><g><path fill="#000000" d="M128,10c-26.4,0-49,10.1-67.7,30.2c-18.7,20.1-28.1,44.3-28.1,72.5v125.7c0,3.4,1.5,5.7,4.6,6.9c0.9,0.3,1.9,0.5,2.8,0.5c2.1,0,4-0.8,5.5-2.3l27.6-30.9l22.1,30c1.2,2.1,3.2,3.2,5.8,3.2s4.5-0.9,5.8-2.8l22.1-29.5l21.2,29.5c1.5,1.9,3.5,2.8,6,2.8c2.5,0,4.5-0.9,6-2.8l22.1-30.4l27.2,30.9c2.1,2.5,4.8,3.1,8.1,1.9s4.8-3.5,4.8-6.9V112.7c0-28.2-9.4-52.4-28.1-72.5C177,20.1,154.4,10,128,10z M209.1,219.1l-20.3-23c-1.9-1.9-3.9-2.7-6.2-2.5c-2.3,0.1-4.1,1.2-5.3,3L155.6,226l-21.2-29c-1.5-2.1-3.5-3.2-6-3.2c-2.5,0-4.5,0.9-6,2.8L100.8,226l-21.2-29.5c-1.5-1.9-3.4-2.8-5.5-2.8h-0.5c-2.1,0-4,0.8-5.5,2.3l-21.2,23.5V112.7c0-24.2,7.9-45,23.7-62.2c15.8-17.2,34.9-25.8,57.3-25.8c22.4,0,41.5,8.6,57.3,25.8c15.8,17.2,23.7,37.9,23.7,62.2L209.1,219.1L209.1,219.1z M164.8,91.1c-4,0-7.4,1.5-10.4,4.4c-2.9,2.9-4.4,6.4-4.4,10.4c0,4,1.5,7.4,4.4,10.4c2.9,2.9,6.4,4.4,10.4,4.4c4,0,7.4-1.5,10.4-4.4c2.9-2.9,4.4-6.4,4.4-10.4c0-4-1.5-7.4-4.4-10.4C172.3,92.5,168.8,91.1,164.8,91.1z M91.1,91.1c-4,0-7.4,1.5-10.4,4.4c-2.9,2.9-4.4,6.4-4.4,10.4c0,4,1.5,7.4,4.4,10.4c2.9,2.9,6.4,4.4,10.4,4.4c4,0,7.4-1.5,10.4-4.4c2.9-2.9,4.4-6.4,4.4-10.4c0-4-1.5-7.4-4.4-10.4C98.6,92.5,95.1,91.1,91.1,91.1z"/></g></g></g>
</svg>